<svg viewBox="0 0 800 800" xmlns="http://www.w3.org/2000/svg"><path d="M398.56767552260254,93.99137281153764 L398.5676755226026,-836.6713372170086 M398.5676755226026,-836.6713372170086 L398.5676755226026,-864.696272451768 M398.5676755226026,-864.696272451768 L398.5676755226026,-846.8594087078798 M398.5676755226026,-846.8594087078798 L476.822282498337,-806.055060959914 M476.822282498337,-806.055060959914 L3694.123167281141,103.82086242866791 M3694.123167281141,103.82086242866791 L398.56767552260254,1446.564788729907 M398.56767552260254,1446.564788729907 L-2896.9878162359355,103.82086242866774 M-2896.9878162359355,103.82086242866774 L398.5676755226026,-828.1860289145211 M398.5676755226026,-828.1860289145211 L3694.123167281141,103.82086242866791 M3694.123167281141,103.82086242866791 L3696.980481546898,61.6309145093046 M3696.980481546898,61.6309145093046 L398.5676755226026,-864.602803485521 M398.5676755226026,-864.602803485521 L398.5676755226026,-829.1286971464783 M398.5676755226026,-829.1286971464783 L476.7942057021355,-788.2696938817444 M476.7942057021355,-788.2696938817444 L3692.733310055284,124.34293263879016 M3692.733310055284,124.34293263879016 L398.56767552260254,1470.9155858757429 M398.56767552260254,1470.9155858757429 L-2895.5979590100787,124.34293263878999 M-2895.5979590100787,124.34293263878999 L398.5676755226026,-810.4686587421475 M398.5676755226026,-810.4686587421475 L3692.733310055284,124.34293263879016 M3692.733310055284,124.34293263879016 L3696.980481546898,61.6309145093046 M3696.980481546898,61.6309145093046 L398.5676755226026,-864.602803485521 M398.5676755226026,-864.602803485521 L398.5676755226026,-811.4106546510516 M398.5676755226026,-811.4106546510516 L476.76614905209266,-770.4970884742024 M476.76614905209266,-770.4970884742024 L3691.344624948258,144.8476958158767 M3691.344624948258,144.8476958158767 L398.56767552260254,1495.2413277994547 M398.56767552260254,1495.2413277994547 L-2894.2092739030527,144.84769581587648 M-2894.2092739030527,144.84769581587648 L398.5676755226026,-792.7639472307646 M398.5676755226026,-792.7639472307646 L3691.344624948258,144.8476958158767 M3691.344624948258,144.8476958158767 L3696.980481546898,61.6309145093046 M3696.980481546898,61.6309145093046 L398.5676755226026,-864.602803485521 M398.5676755226026,-864.602803485521 L398.5676755226026,-793.7052682033984 M398.5676755226026,-793.7052682033984 L476.7381125133374,-752.7372226482091 M476.7381125133374,-752.7372226482091 L3689.957109824966,165.33518348587012 M3689.957109824966,165.33518348587012 L398.56767552260254,1519.5420645863585 M398.56767552260254,1519.5420645863585 L-2892.821758779761,165.33518348586995 M-2892.821758779761,165.33518348586995 L398.5676755226026,-775.0718724920821 M398.5676755226026,-775.0718724920821 L3689.957109824966,165.33518348587012 M3689.957109824966,165.33518348587012 L3696.980481546898,61.6309145093046 M3696.980481546898,61.6309145093046 L398.5676755226026,-864.602803485521 M398.5676755226026,-864.602803485521 L398.5676755226026,-776.0125214723307 M398.5676755226026,-776.0125214723307 L476.7100960712862,-734.9900871655759 M476.7100960712862,-734.9900871655759 L3688.5707635554095,185.80541233391557 M3688.5707635554095,185.80541233391557 L398.56767552260254,1543.8178286794175 M398.56767552260254,1543.8178286794175 L-2891.435412510204,185.8054123339154 M-2891.435412510204,185.8054123339154 L398.5676755226026,-757.3924254393546 M398.5676755226026,-757.3924254393546 L3688.5707635554095,185.80541233391557 M3688.5707635554095,185.80541233391557 L3696.980481546898,61.6309145093046 M3696.980481546898,61.6309145093046 L398.5676755226026,-864.602803485521 M398.5676755226026,-864.602803485521 L398.5676755226026,-758.3324031465461 M398.5676755226026,-758.3324031465461 L476.68209970433855,-717.2556683434645 M476.68209970433855,-717.2556683434645 L3687.1855846632297,206.25840415928383 M3687.1855846632297,206.25840415928383 L398.56767552260254,1568.0686585537092 M398.56767552260254,1568.0686585537092 L-2890.0502336180243,206.2584041592836 M-2890.0502336180243,206.2584041592836 L398.5676755226026,-739.7255925579232 M398.5676755226026,-739.7255925579232 L3687.1855846632297,206.25840415928383 M3687.1855846632297,206.25840415928383 L3696.980481546898,61.6309145093046 M3696.980481546898,61.6309145093046 L398.5676755226026,-864.602803485521 M398.5676755226026,-864.602803485521 L398.5676755226026,-740.6648997103598 M398.5676755226026,-740.6648997103598 L476.65412339092495,-699.5339525186389 M476.65412339092495,-699.5339525186389 L3685.8015716745595,226.69418072454846 M3685.8015716745595,226.69418072454846 L398.56767552260254,1592.2945926053155 M398.56767552260254,1592.2945926053155 L-2888.666220629354,226.69418072454823 M-2888.666220629354,226.69418072454823 L398.5676755226026,-722.071360352408 M398.5676755226026,-722.071360352408 L3685.8015716745595,226.69418072454846 M3685.8015716745595,226.69418072454846 L3696.980481546898,61.6309145093046 M3696.980481546898,61.6309145093046 L398.5676755226026,-864.602803485521 M398.5676755226026,-864.602803485521 L398.5676755226026,-723.0100065304644 M398.5676755226026,-723.0100065304644 L476.62616712354156,-681.8249349376847 M476.62616712354156,-681.8249349376847 L3684.418723812178,247.1127535058033 M3684.418723812178,247.1127535058033 L398.56767552260254,1616.4956570040229 M398.56767552260254,1616.4956570040229 L-2887.2833727669727,247.1127535058032 M-2887.2833727669727,247.1127535058032 L398.5676755226026,-704.4297242031148 M398.5676755226026,-704.4297242031148 L3684.418723812178,247.1127535058033 M3684.418723812178,247.1127535058033 L3696.980481546898,61.6309145093046 M3696.980481546898,61.6309145093046 L398.5676755226026,-864.602803485521 M398.5676755226026,-864.602803485521 L398.5676755226026,-705.3676923971886 M398.5676755226026,-705.3676923971886 L476.59823085260155,-664.1285841895908 M476.59823085260155,-664.1285841895908 L3683.037038218244,267.5141647007988 M3683.037038218244,267.5141647007988 L398.56767552260254,1640.6719142959812 M398.56767552260254,1640.6719142959812 L-2885.9016871730387,267.5141647007988 M-2885.9016871730387,267.5141647007988 L398.5676755226026,-686.8006529339214 M398.5676755226026,-686.8006529339214 L3683.037038218244,267.5141647007988 M3683.037038218244,267.5141647007988 L3696.980481546898,61.6309145093046 M3696.980481546898,61.6309145093046 L398.5676755226026,-864.602803485521 M398.5676755226026,-864.602803485521 L398.5676755226026,-687.8307588926905 M398.5676755226026,-687.8307588926905 L476.5704615268779,-646.5379856054967 M476.5704615268779,-646.5379856054967 L3681.663780989702,287.79112605797457 M3681.663780989702,287.79112605797457 L398.56767552260254,1664.6962724517678 M398.56767552260254,1664.6962724517678 L-2884.5284299444966,287.79112605797434 M-2884.5284299444966,287.79112605797434 L398.5676755226026,-669.2768785145072 M398.5676755226026,-669.2768785145072 L3681.663780989702,287.79112605797457 M3681.663780989702,287.79112605797457 L3696.9878162359355,61.52261345462932" stroke="black"  stroke-width="4"  fill="red"/></svg>