<svg viewBox="0 0 800 800" xmlns="http://www.w3.org/2000/svg"><path d="M399.82795142050446,382.75208442053645 L399.82795142050446,382.1967937559401 M399.82795142050446,382.1967937559401 L399.82795142050446,380.3695949058638 M399.82795142050446,380.3695949058638 L399.82795142050446,384.22821577444523 M399.82795142050446,384.22821577444523 L398.1608528018311,385.17804011701816 M398.1608528018311,385.17804011701816 L399.82795142050446,386.13067623522517 M399.82795142050446,386.13067623522517 L401.49457373269337,385.961009659997 M401.49457373269337,385.961009659997 L401.3150270588279,385.9427794753746 M401.3150270588279,385.9427794753746 L399.82795142050446,385.4431968785531 M399.82795142050446,385.4431968785531 L398.1613547069005,386.00308952461586 M398.1613547069005,386.00308952461586 L399.82795142050446,386.56479950286024 M399.82795142050446,386.56479950286024 L401.4945481341084,386.00308952461586 M401.4945481341084,386.00308952461586 L399.82795142050446,385.4431968785531 M399.82795142050446,385.4431968785531 L399.82795142050446,388.0699443667141 M399.82795142050446,388.0699443667141 L398.16319249141117,389.0241050795637 M398.16319249141117,389.0241050795637 L399.82795142050446,389.98108686879164 M399.82795142050446,389.98108686879164 L401.4922353790173,389.8048786160019 M401.4922353790173,389.8048786160019 L401.3129410129261,389.7859464852105 M401.3129410129261,389.7859464852105 L399.82795142050446,389.28152315988007 M399.82795142050446,389.28152315988007 L398.1636929889712,389.8468407732339 M398.1636929889712,389.8468407732339 L399.82795142050446,390.41399074879854 M399.82795142050446,390.41399074879854 L401.49220985203766,389.8468407732339 M401.49220985203766,389.8468407732339 L399.82795142050446,389.28152315988007 M399.82795142050446,389.28152315988007 L399.82795142050446,391.89487664778125 M399.82795142050446,391.89487664778125 L398.1655219426004,392.85333981115326 M398.1655219426004,392.85333981115326 L399.82795142050446,393.81463221895615 M399.82795142050446,393.81463221895615 L401.4899072562863,393.6319295807745 M401.4899072562863,393.6319295807745 L401.31086409310694,393.61230031777956 M401.31086409310694,393.61230031777956 L399.82795142050446,393.10307288598057 M399.82795142050446,393.10307288598057 L398.1660210403347,393.6737744215182 M398.1660210403347,393.6737744215182 L399.82795142050446,394.2463231783539 M399.82795142050446,394.2463231783539 L401.48988180067414,393.6737744215182 M401.48988180067414,393.6737744215182 L399.82795142050446,393.10307288598057 M399.82795142050446,393.10307288598057 L399.82795142050446,380.3695949058638 M399.82795142050446,380.3695949058638 L399.82795142050446,380.37568960591966 M399.82795142050446,380.37568960591966 L399.82795142050446,328.72999071358583 M399.82795142050446,328.72999071358583 L399.82795142050446,333.1109364466972 M399.82795142050446,333.1109364466972 L585.3681067768243,386.0030895246159 M585.3681067768243,386.0030895246159 L399.82795142050446,462.1769346128061 M399.82795142050446,462.1769346128061 L214.28779606418462,386.00308952461586 M214.28779606418462,386.00308952461586 L399.82795142050446,333.1109364466972 M399.82795142050446,333.1109364466972 L399.82795142050446,336.4308680968857 M399.82795142050446,336.4308680968857 L585.1077887196016,389.8468407732339 M585.1077887196016,389.8468407732339 L399.82795142050446,466.7348404130262 M399.82795142050446,466.7348404130262 L214.54811412140737,389.8468407732339 M214.54811412140737,389.8468407732339 L399.82795142050446,336.4308680968857 M399.82795142050446,336.4308680968857 L399.82795142050446,338.6920749760338 M399.82795142050446,338.6920749760338 L404.22384064987983,341.019151567045 M404.22384064987983,341.019151567045 L584.8486096343786,393.6737744215182 M584.8486096343786,393.6737744215182 L399.82795142050446,471.27000928641417 M399.82795142050446,471.27000928641417 L214.8072932066304,393.6737744215182 M214.8072932066304,393.6737744215182 L399.82795142050446,339.7376889482463 M399.82795142050446,339.7376889482463 L584.8486096343786,393.6737744215182 M584.8486096343786,393.6737744215182 L585.7122039358153,380.92228991114047" stroke="black"  stroke-width="4"  fill="red"/></svg>