<svg viewBox="0 0 800 800" xmlns="http://www.w3.org/2000/svg"><path d="M399.9192805787371,382.754718167631 L399.9192805787371,330.3067173619734 M399.9192805787371,330.3067173619734 L399.9192805787371,328.72735696649136 M399.9192805787371,328.72735696649136 L399.9192805787371,329.7325630781461 M399.9192805787371,329.7325630781461 L404.32936131527356,332.0321141835019 M404.32936131527356,332.0321141835019 L585.6420942515222,383.3086643758578 M585.6420942515222,383.3086643758578 L399.9192805787371,458.9797251904455 M399.9192805787371,458.9797251904455 L214.19646690595204,383.3086643758578 M214.19646690595204,383.3086643758578 L399.9192805787371,330.7849115045877 M399.9192805787371,330.7849115045877 L585.6420942515222,383.3086643758578 M585.6420942515222,383.3086643758578 L585.8031197436769,380.9310270227962 M585.8031197436769,380.9310270227962 L399.9192805787371,328.73262446068037 M399.9192805787371,328.73262446068037 L399.9192805787371,330.73178692609497 M399.9192805787371,330.73178692609497 L404.32777903222524,333.0344181726842 M404.32777903222524,333.0344181726842 L585.5637680952079,384.4651967514606 M585.5637680952079,384.4651967514606 L399.9192805787371,460.3520275450591 M399.9192805787371,460.3520275450591 L214.2747930622662,384.4651967514606 M214.2747930622662,384.4651967514606 L399.9192805787371,331.783383491336 M399.9192805787371,331.783383491336 L585.5637680952079,384.4651967514606 M585.5637680952079,384.4651967514606 L585.8031197436769,380.9310270227962 M585.8031197436769,380.9310270227962 L399.9192805787371,328.73262446068037 M399.9192805787371,328.73262446068037 L399.9192805787371,331.7302968019728 M399.9192805787371,331.7302968019728 L404.32619788452456,334.0360029710101 M404.32619788452456,334.0360029710101 L585.485507994285,385.6207537798482 M585.485507994285,385.6207537798482 L399.9192805787371,461.72291789906706 M399.9192805787371,461.72291789906706 L214.35305316318923,385.6207537798482 M214.35305316318923,385.6207537798482 L399.9192805787371,332.78114209239186 M399.9192805787371,332.78114209239186 L585.485507994285,385.6207537798482 M585.485507994285,385.6207537798482 L585.8031197436769,380.9310270227962 M585.8031197436769,380.9310270227962 L399.9192805787371,328.73262446068037 M399.9192805787371,328.73262446068037 L399.9192805787371,332.7280934394276 M399.9192805787371,332.7280934394276 L404.32461787020634,335.0368698233217 M404.32461787020634,335.0368698233217 L585.4073138284286,386.77533723768187 M585.4073138284286,386.77533723768187 L399.9192805787371,463.0923990750545 M399.9192805787371,463.0923990750545 L214.43124732904556,386.77533723768187 M214.43124732904556,386.77533723768187 L399.9192805787371,333.7781885412817 M399.9192805787371,333.7781885412817 L585.4073138284286,386.77533723768187 M585.4073138284286,386.77533723768187 L585.8031197436769,380.9310270227962 M585.8031197436769,380.9310270227962 L399.9192805787371,328.73262446068037 M399.9192805787371,328.73262446068037 L399.9192805787371,333.72517775881204 M399.9192805787371,333.72517775881204 L404.32303898844884,336.0370192502421 M404.32303898844884,336.0370192502421 L585.3291855339571,387.9289480652624 M585.3291855339571,387.9289480652624 L399.9192805787371,464.4604729013623 M399.9192805787371,464.4604729013623 L214.50937562351695,387.92894806526226 M214.50937562351695,387.92894806526226 L399.9192805787371,334.774523350094 M399.9192805787371,334.774523350094 L585.3291855339571,387.9289480652624 M585.3291855339571,387.9289480652624 L585.8031197436769,380.9310270227962 M585.8031197436769,380.9310270227962 L399.9192805787371,328.73262446068037 M399.9192805787371,328.73262446068037 L399.9192805787371,334.7215503975809 M399.9192805787371,334.7215503975809 L404.3214612380347,337.03645202287515 M404.3214612380347,337.03645202287515 L585.2511230276698,389.08158749109907 M585.2511230276698,389.08158749109907 L399.9192805787371,465.82714154627416 M399.9192805787371,465.82714154627416 L214.58743812980427,389.08158749109907 M214.58743812980427,389.08158749109907 L399.9192805787371,335.77014728045464 M399.9192805787371,335.77014728045464 L585.2511230276698,389.08158749109907 M585.2511230276698,389.08158749109907 L585.8031197436769,380.9310270227962 M585.8031197436769,380.9310270227962 L399.9192805787371,328.73262446068037 M399.9192805787371,328.73262446068037 L399.9192805787371,335.7172121174178 M399.9192805787371,335.7172121174178 L404.3198846177482,338.03516891121967 M404.3198846177482,338.03516891121967 L585.1731262265059,390.2332567416339 M585.1731262265059,390.2332567416339 L399.9192805787371,467.19240717362214 M399.9192805787371,467.19240717362214 L214.66543493096827,390.2332567416339 M214.66543493096827,390.2332567416339 L399.9192805787371,336.7650610929031 M399.9192805787371,336.7650610929031 L585.1731262265059,390.2332567416339 M585.1731262265059,390.2332567416339 L585.8031197436769,380.9310270227962 M585.8031197436769,380.9310270227962 L399.9192805787371,328.73262446068037 M399.9192805787371,328.73262446068037 L399.9192805787371,336.7121631794352 M399.9192805787371,336.7121631794352 L404.31830912716674,339.0331701831572 M404.31830912716674,339.0331701831572 L585.0951950866645,391.3839564636082 M585.0951950866645,391.3839564636082 L399.9192805787371,468.55627125821854 M399.9192805787371,468.55627125821854 L214.74336607080954,391.3839564636082 M214.74336607080954,391.3839564636082 L399.9192805787371,337.75926504778477 M399.9192805787371,337.75926504778477 L585.0951950866645,391.3839564636082 M585.0951950866645,391.3839564636082 L585.8031197436769,380.9310270227962 M585.8031197436769,380.9310270227962 L399.9192805787371,328.73262446068037 M399.9192805787371,328.73262446068037 L399.9192805787371,337.70640534247116 M399.9192805787371,337.70640534247116 L404.31673476349556,340.0304576088721 M404.31673476349556,340.0304576088721 L585.0173294470908,392.53368903509886 M585.0173294470908,392.53368903509886 L399.9192805787371,469.9187373248858 M399.9192805787371,469.9187373248858 L214.82123171038327,392.53368903509886 M214.82123171038327,392.53368903509886 L399.9192805787371,338.7527609020468 M399.9192805787371,338.7527609020468 L585.0173294470908,392.53368903509886 M585.0173294470908,392.53368903509886 L585.8031197436769,380.9310270227962 M585.8031197436769,380.9310270227962 L399.9192805787371,328.73262446068037 M399.9192805787371,328.73262446068037 L399.9192805787371,338.6947087231283 M399.9192805787371,338.6947087231283 L404.31516980811244,341.02178531413955 M404.31516980811244,341.02178531413955 L584.9399387926112,393.67640816861274 M584.9399387926112,393.67640816861274 L399.9192805787371,471.2726430335087 M399.9192805787371,471.2726430335087 L214.898622364863,393.67640816861274 M214.898622364863,393.67640816861274 L399.9192805787371,339.7403226953408 M399.9192805787371,339.7403226953408 L584.9399387926112,393.67640816861274 M584.9399387926112,393.67640816861274 L585.8035330940479,380.924923658235" stroke="black"  stroke-width="4"  fill="red"/></svg>