<svg viewBox="0 0 800 800" xmlns="http://www.w3.org/2000/svg"><path d="M399.9193637652392,382.77249052837584 L399.9193637652392,330.37854072633337 M399.9193637652392,330.37854072633337 L399.9193637652392,328.80080796227924 M399.9193637652392,328.80080796227924 L399.9193637652392,329.80497814504554 M399.9193637652392,329.80497814504554 L404.3248996328356,332.1021594166003 M404.3248996328356,332.1021594166003 L585.4507782556145,383.3258658597715 M585.4507782556145,383.3258658597715 L399.9193637652392,458.9189428290492 M399.9193637652392,458.9189428290492 L214.38794927486393,383.3258658597715 M214.38794927486393,383.3258658597715 L399.9193637652392,330.8562420594423 M399.9193637652392,330.8562420594423 L585.4507782556145,383.3258658597715 M585.4507782556145,383.3258658597715 L585.6116378007489,380.9506788133601 M585.6116378007489,380.9506788133601 L399.9193637652392,328.8060700279801 M399.9193637652392,328.8060700279801 L399.9193637652392,330.80317222920957 M399.9193637652392,330.80317222920957 L404.3233189804306,333.10343046771607 M404.3233189804306,333.10343046771607 L585.3725328193905,384.4812063551376 M585.3725328193905,384.4812063551376 L399.9193637652392,460.28983093872705 M399.9193637652392,460.28983093872705 L214.46619471108787,384.4812063551376 M214.46619471108787,384.4812063551376 L399.9193637652392,331.8536850572466 M399.9193637652392,331.8536850572466 L585.3725328193905,384.4812063551376 M585.3725328193905,384.4812063551376 L585.6116378007489,380.9506788133601 M585.6116378007489,380.9506788133601 L399.9193637652392,328.8060700279801 M399.9193637652392,328.8060700279801 L399.9193637652392,331.8006530770963 M399.9193637652392,331.8006530770963 L404.3217394622033,334.10398306914743 M404.3217394622033,334.10398306914743 L585.2943533704836,385.6355725084458 M585.2943533704836,385.6355725084458 L399.9193637652392,461.6593085029557 M399.9193637652392,461.6593085029557 L214.54437415999496,385.6355725084458 M214.54437415999496,385.6355725084458 L399.9193637652392,332.8504154045478 M399.9193637652392,332.8504154045478 L585.2943533704836,385.6355725084458 M585.2943533704836,385.6355725084458 L585.6116378007489,380.9506788133601 M585.6116378007489,380.9506788133601 L399.9193637652392,328.8060700279801 M399.9193637652392,328.8060700279801 L399.9193637652392,332.79742142159745 M399.9193637652392,332.79742142159745 L404.32016107619046,335.10381846445364 M404.32016107619046,335.10381846445364 L585.2162397886927,386.78896609452664 M585.2162397886927,386.78896609452664 L399.9193637652392,463.0273783414116 M399.9193637652392,463.0273783414116 L214.62248774178556,386.78896609452664 M214.62248774178556,386.78896609452664 L399.9193637652392,333.84643433360117 M399.9193637652392,333.84643433360117 L585.2162397886927,386.78896609452664 M585.2162397886927,386.78896609452664 L585.6116378007489,380.9506788133601 M585.6116378007489,380.9506788133601 L399.9193637652392,328.8060700279801 M399.9193637652392,328.8060700279801 L399.9193637652392,333.7934781821175 M399.9193637652392,333.7934781821175 L404.3185838215711,336.1029371737211 M404.3185838215711,336.1029371737211 L585.1381920104025,387.94138805271166 M585.1381920104025,387.94138805271166 L399.9193637652392,464.3940422805512 M399.9193637652392,464.3940422805512 L214.70053552007593,387.94138805271166 M214.70053552007593,387.94138805271166 L399.9193637652392,334.8417423559673 M399.9193637652392,334.8417423559673 L585.1381920104025,387.94138805271166 M585.1381920104025,387.94138805271166 L585.6116378007489,380.9506788133601 M585.6116378007489,380.9506788133601 L399.9193637652392,328.8060700279801 M399.9193637652392,328.8060700279801 L399.9193637652392,334.7888239954539 M399.9193637652392,334.7888239954539 L404.3170076971292,337.1013399672591 M404.3170076971292,337.1013399672591 L585.0602099524972,389.0928396102443 M585.0602099524972,389.0928396102443 L399.9193637652392,465.75930248642385 M399.9193637652392,465.75930248642385 L214.77851757798118,389.0928396102443 M214.77851757798118,389.0928396102443 L399.9193637652392,335.8363402324874 M399.9193637652392,335.8363402324874 L585.0602099524972,389.0928396102443 M585.0602099524972,389.0928396102443 L585.6116378007489,380.9506788133601 M585.6116378007489,380.9506788133601 L399.9193637652392,328.8060700279801 M399.9193637652392,328.8060700279801 L399.9193637652392,335.78345962250575 M399.9193637652392,335.78345962250575 L404.3154327016503,338.099027614273 M404.3154327016503,338.099027614273 L584.9822935320021,390.24332199230236 M584.9822935320021,390.24332199230236 L399.9193637652392,467.1231611206314 M399.9193637652392,467.1231611206314 L214.85643399847638,390.24332199230236 M214.85643399847638,390.24332199230236 L399.9193637652392,336.83022872291696 M399.9193637652392,336.83022872291696 L584.9822935320021,390.24332199230236 M584.9822935320021,390.24332199230236 L585.6116378007489,380.9506788133601 M585.6116378007489,380.9506788133601 L399.9193637652392,328.8060700279801 M399.9193637652392,328.8060700279801 L399.9193637652392,336.7773853241163 M399.9193637652392,336.7773853241163 L404.3138588347121,339.0960003823681 M404.3138588347121,339.0960003823681 L584.9044427051613,391.39283584496076 M584.9044427051613,391.39283584496076 L399.9193637652392,468.4856196564666 M399.9193637652392,468.4856196564666 L214.93428482531706,391.39283584496076 M214.93428482531706,391.39283584496076 L399.9193637652392,337.8234080873331 M399.9193637652392,337.8234080873331 L584.9044427051613,391.39283584496076 M584.9044427051613,391.39283584496076 L585.6116378007489,380.9506788133601 M585.6116378007489,380.9506788133601 L399.9193637652392,328.8060700279801 M399.9193637652392,328.8060700279801 L399.9193637652392,337.77060285731085 M399.9193637652392,337.77060285731085 L404.3122860935229,340.0922600399045 M404.3122860935229,340.0922600399045 L584.8266573110861,392.5413835438458 M584.8266573110861,392.5413835438458 L399.9193637652392,469.8466816151188 M399.9193637652392,469.8466816151188 L215.01207021939237,392.5413835438458 M215.01207021939237,392.5413835438458 L399.9193637652392,338.81588008087243 M399.9193637652392,338.81588008087243 L584.8266573110861,392.5413835438458 M584.8266573110861,392.5413835438458 L585.6116378007489,380.9506788133601 M585.6116378007489,380.9506788133601 L399.9193637652392,328.8060700279801 M399.9193637652392,328.8060700279801 L399.9193637652392,338.7578877284198 M399.9193637652392,338.7578877284198 L404.310722750926,341.0825661188648 M404.310722750926,341.0825661188648 L584.7493464126023,393.68292503254816 M584.7493464126023,393.68292503254816 L399.9193637652392,471.19919203772076 M399.9193637652392,471.19919203772076 L215.089381117876,393.68292503254816 M215.089381117876,393.68292503254816 L399.9193637652392,339.8024241288712 M399.9193637652392,339.8024241288712 L584.7493464126023,393.68292503254816 M584.7493464126023,393.68292503254816 L585.612050725136,380.9445817387046" stroke="black"  stroke-width="4"  fill="red"/></svg>